<svg width="30" height="28" viewBox="0 0 30 28" fill="none" xmlns="http://www.w3.org/2000/svg">
<path d="M15 10.8746C14.2936 10.8748 13.6032 11.0583 13.0159 11.4019C12.4287 11.7455 11.9711 12.2337 11.701 12.8048C11.4308 13.3759 11.3603 14.0043 11.4983 14.6105C11.6362 15.2166 11.9765 15.7734 12.4761 16.2104C12.9757 16.6474 13.6122 16.9449 14.305 17.0654C14.9978 17.1859 15.7159 17.124 16.3685 16.8874C17.0211 16.6508 17.5789 16.2502 17.9713 15.7363C18.3638 15.2223 18.5732 14.6181 18.5732 14C18.5725 13.1711 18.1958 12.3763 17.5258 11.7903C16.8558 11.2043 15.9473 10.8749 15 10.8746ZM23.3511 8.47227C23.1693 8.06905 22.8947 7.70282 22.5444 7.39631C22.1941 7.0898 21.7756 6.84954 21.3147 6.69043C19.9085 6.20469 16.5603 6.31367 15 6.31367C13.4397 6.31367 10.0949 6.20059 8.6846 6.69043C8.22378 6.84954 7.80524 7.0898 7.45494 7.39631C7.10464 7.70282 6.83005 8.06905 6.64821 8.47227C6.09375 9.70273 6.21763 12.6354 6.21763 13.9994C6.21763 15.3635 6.09375 18.2926 6.65089 19.5271C6.83273 19.9304 7.10732 20.2966 7.45761 20.6031C7.80791 20.9096 8.22646 21.1499 8.68728 21.309C10.0935 21.7947 13.4417 21.6857 15.0027 21.6857C16.5636 21.6857 19.9071 21.7988 21.3174 21.309C21.7782 21.1499 22.1968 20.9096 22.5471 20.6031C22.8974 20.2966 23.172 19.9304 23.3538 19.5271C23.9129 18.2967 23.7844 15.3641 23.7844 14C23.7844 12.6359 23.9129 9.70742 23.3538 8.47285L23.3511 8.47227ZM15 18.8047C13.914 18.8047 12.8523 18.5229 11.9493 17.995C11.0463 17.467 10.3425 16.7166 9.92691 15.8387C9.5113 14.9607 9.40256 13.9947 9.61444 13.0627C9.82631 12.1306 10.3493 11.2745 11.1172 10.6026C11.8852 9.93062 12.8636 9.47302 13.9287 9.28763C14.9939 9.10224 16.098 9.19739 17.1013 9.56105C18.1047 9.9247 18.9623 10.5405 19.5657 11.3307C20.169 12.1208 20.4911 13.0497 20.4911 14C20.492 14.6312 20.3505 15.2563 20.0749 15.8396C19.7992 16.4229 19.3948 16.9528 18.8847 17.3991C18.3747 17.8455 17.769 18.1993 17.1024 18.4405C16.4358 18.6817 15.7213 18.8055 15 18.8047ZM20.7174 10.1152C20.4639 10.1153 20.216 10.0497 20.0052 9.92651C19.7943 9.80336 19.6299 9.62824 19.5328 9.42333C19.4357 9.21842 19.4102 8.9929 19.4596 8.77532C19.509 8.55773 19.631 8.35785 19.8102 8.20095C19.9894 8.04405 20.2178 7.93718 20.4664 7.89386C20.7151 7.85054 20.9728 7.87271 21.2071 7.95758C21.4413 8.04244 21.6415 8.18619 21.7824 8.37063C21.9233 8.55507 21.9984 8.77192 21.9984 8.99375C21.9991 9.14106 21.9666 9.28705 21.9027 9.42333C21.8388 9.55961 21.7447 9.68351 21.626 9.78793C21.5072 9.89234 21.366 9.9752 21.2106 10.0318C21.0551 10.0883 20.8884 10.1175 20.7201 10.1176L20.7174 10.1152ZM26.7857 0.875H3.21429C2.3618 0.875 1.54424 1.17132 0.941442 1.69876C0.338647 2.22621 0 2.94158 0 3.6875L0 24.3125C0 25.0584 0.338647 25.7738 0.941442 26.3012C1.54424 26.8287 2.3618 27.125 3.21429 27.125H26.7857C27.6382 27.125 28.4558 26.8287 29.0586 26.3012C29.6614 25.7738 30 25.0584 30 24.3125V3.6875C30 2.94158 29.6614 2.22621 29.0586 1.69876C28.4558 1.17132 27.6382 0.875 26.7857 0.875ZM25.6393 17.8672C25.5529 19.3689 25.1612 20.6996 23.9083 21.793C22.6554 22.8863 21.1359 23.2361 19.4217 23.3076C17.6531 23.3949 12.3509 23.3949 10.5824 23.3076C8.86607 23.232 7.35067 22.8887 6.09576 21.793C4.84085 20.6973 4.44643 19.366 4.36473 17.8672C4.26496 16.3191 4.26496 11.6791 4.36473 10.1328C4.45112 8.63105 4.83817 7.30039 6.09576 6.20703C7.35335 5.11367 8.87277 4.76797 10.5824 4.69648C12.3509 4.60918 17.6531 4.60918 19.4217 4.69648C21.1379 4.77207 22.658 5.11543 23.9083 6.21113C25.1585 7.30684 25.5576 8.63809 25.6393 10.1398C25.7391 11.682 25.7391 16.318 25.6393 17.8672Z" fill="white"/>
</svg>
