<svg width="26" height="26" viewBox="0 0 26 26" fill="none" xmlns="http://www.w3.org/2000/svg">
<path d="M23.5875 0.500007H2.41245C2.17442 0.496701 1.93808 0.540316 1.71691 0.628362C1.49574 0.716407 1.29408 0.847158 1.12345 1.01315C0.952816 1.17914 0.816553 1.37711 0.722441 1.59577C0.628329 1.81443 0.578212 2.04948 0.574951 2.28751V23.7125C0.578212 23.9505 0.628329 24.1856 0.722441 24.4042C0.816553 24.6229 0.952816 24.8209 1.12345 24.9869C1.29408 25.1529 1.49574 25.2836 1.71691 25.3717C1.93808 25.4597 2.17442 25.5033 2.41245 25.5H23.5875C23.8255 25.5033 24.0618 25.4597 24.283 25.3717C24.5042 25.2836 24.7058 25.1529 24.8765 24.9869C25.0471 24.8209 25.1833 24.6229 25.2775 24.4042C25.3716 24.1856 25.4217 23.9505 25.425 23.7125V2.28751C25.4217 2.04948 25.3716 1.81443 25.2775 1.59577C25.1833 1.37711 25.0471 1.17914 24.8765 1.01315C24.7058 0.847158 24.5042 0.716407 24.283 0.628362C24.0618 0.540316 23.8255 0.496701 23.5875 0.500007ZM8.11245 21.425H4.36245V10.175H8.11245V21.425ZM6.23745 8.60001C5.72028 8.60001 5.22429 8.39456 4.85859 8.02886C4.4929 7.66317 4.28745 7.16718 4.28745 6.65001C4.28745 6.13283 4.4929 5.63684 4.85859 5.27115C5.22429 4.90545 5.72028 4.70001 6.23745 4.70001C6.51207 4.66886 6.79017 4.69607 7.05354 4.77986C7.31692 4.86365 7.55963 5.00212 7.76577 5.18621C7.97192 5.3703 8.13686 5.59585 8.24979 5.84811C8.36272 6.10036 8.4211 6.37363 8.4211 6.65001C8.4211 6.92639 8.36272 7.19965 8.24979 7.4519C8.13686 7.70416 7.97192 7.92972 7.76577 8.11381C7.55963 8.29789 7.31692 8.43637 7.05354 8.52015C6.79017 8.60394 6.51207 8.63115 6.23745 8.60001ZM21.6375 21.425H17.8875V15.3875C17.8875 13.875 17.35 12.8875 15.9875 12.8875C15.5658 12.8906 15.1552 13.0229 14.811 13.2665C14.4668 13.5101 14.2056 13.8533 14.0625 14.25C13.9646 14.5438 13.9222 14.8532 13.9375 15.1625V21.4125H10.1875V10.1625H13.9375V11.75C14.2781 11.1589 14.7736 10.6719 15.3705 10.3415C15.9674 10.0111 16.6432 9.84982 17.325 9.87501C19.825 9.87501 21.6375 11.4875 21.6375 14.95V21.425Z" fill="white"/>
</svg>
