<svg width="30" height="30" viewBox="0 0 30 30" fill="none" xmlns="http://www.w3.org/2000/svg">
<path d="M15.0197 0C6.74342 0 0.034668 6.70875 0.034668 14.985C0.034668 21.3328 3.98529 26.7525 9.56061 28.935C9.42842 27.7481 9.31123 25.9322 9.60936 24.6384C9.88311 23.4666 11.3672 17.1919 11.3672 17.1919C11.3672 17.1919 10.9181 16.2881 10.9181 14.9653C10.9181 12.885 12.1294 11.3278 13.6284 11.3278C14.9081 11.3278 15.5278 12.285 15.5278 13.4372C15.5278 14.7216 14.7122 16.6453 14.2875 18.4275C13.9312 19.9172 15.0347 21.1322 16.5047 21.1322C19.1662 21.1322 21.2165 18.3244 21.2165 14.2716C21.2165 10.6969 18.6384 8.18719 14.9569 8.18719C10.694 8.18719 8.19373 11.3906 8.19373 14.6859C8.19373 15.975 8.68686 17.3616 9.30748 18.1087C9.42936 18.2597 9.44436 18.3919 9.40967 18.5438C9.29717 19.0125 9.04311 20.0428 8.99436 20.2481C8.92592 20.5266 8.77967 20.5847 8.49186 20.4534C6.62623 19.5891 5.44967 16.8544 5.44967 14.6475C5.44967 9.92625 8.88748 5.58 15.3525 5.58C20.5481 5.58 24.5906 9.29062 24.5906 14.2322C24.5906 19.4034 21.3337 23.5631 16.8028 23.5631C15.284 23.5631 13.8581 22.7766 13.3556 21.8391L12.4181 25.3987C12.0815 26.7028 11.1628 28.3378 10.5431 29.3297C11.9494 29.7591 13.4287 29.9991 14.9812 29.9991C23.2434 29.9991 29.9615 23.295 29.9615 15.0141C29.9615 6.73781 23.2425 0.03375 14.9812 0.03375L15.0197 0Z" fill="white"/>
</svg>
