<svg width="30" height="30" viewBox="0 0 30 30" fill="none" xmlns="http://www.w3.org/2000/svg">
<path d="M29.9705 7.02135C29.9689 6.48096 29.9196 5.94177 29.823 5.41008C29.7151 4.76011 29.5099 4.13011 29.2143 3.5413C28.89 2.92258 28.4679 2.36033 27.9643 1.87628C27.2043 1.13315 26.2659 0.598073 25.2394 0.322504C24.2962 0.093924 23.3271 -0.00946647 22.3569 0.0149997L22.3519 0H7.64231V0.0149997C7.09016 0.0105257 6.53816 0.0351436 5.9886 0.0887508C5.38738 0.153045 4.79557 0.286428 4.22489 0.486257C3.28404 0.840571 2.44001 1.41177 1.76131 2.15348C1.08261 2.8952 0.588376 3.78651 0.318742 4.75507C0.0917224 5.69003 -0.0116575 6.65075 0.0112495 7.61261L0 22.3703C0.00957339 23.0385 0.0550548 23.7058 0.136247 24.3691C0.23644 25.069 0.443426 25.7495 0.749981 26.3866C1.18281 27.2376 1.79881 27.9821 2.55369 28.5667C3.09308 28.9966 3.7041 29.3279 4.35864 29.5454C5.31956 29.842 6.32045 29.9887 7.32607 29.9804C7.95605 29.9842 8.58479 30.0004 9.21352 29.9979C13.7884 29.9779 18.362 30.0304 22.9357 29.9692C23.54 29.956 24.1421 29.892 24.7356 29.7779C25.8573 29.5807 26.9013 29.0732 27.7493 28.3129C28.7478 27.446 29.445 26.2843 29.7405 24.9954C29.9223 24.1324 30.0091 23.2522 29.9993 22.3703V22.1941C29.9993 22.1253 29.9743 7.21885 29.9705 7.02135ZM25.9544 20.9028C25.7619 21.3528 24.7919 21.7241 23.1494 21.9778C22.9957 22.0028 22.9307 22.2516 22.8419 22.6591C22.8044 22.8278 22.7669 22.9928 22.7169 23.1653C22.7019 23.2387 22.6605 23.3039 22.6007 23.3489C22.5408 23.3938 22.4665 23.4152 22.3919 23.4091H22.3669C22.2097 23.4035 22.0532 23.3839 21.8995 23.3503C21.4941 23.2652 21.0812 23.2212 20.667 23.2191C20.3696 23.2199 20.0728 23.245 19.7795 23.2941C19.1599 23.4509 18.5836 23.7453 18.0933 24.1553C17.2649 24.8627 16.2241 25.2731 15.1359 25.3216C15.0734 25.3216 15.0134 25.3191 14.9684 25.3166C14.9318 25.3198 14.8951 25.3215 14.8584 25.3216C13.7707 25.2738 12.7301 24.8637 11.9022 24.1566C11.4115 23.7462 10.8348 23.4514 10.2147 23.2941C9.92146 23.2449 9.62464 23.2198 9.32727 23.2191C8.9132 23.2232 8.50065 23.2697 8.09605 23.3578C7.94246 23.3938 7.78604 23.4164 7.62856 23.4253C7.54928 23.4342 7.46954 23.4133 7.40485 23.3666C7.34016 23.3199 7.29514 23.2509 7.27857 23.1728C7.22996 23.0046 7.18826 22.8345 7.15357 22.6628C7.06357 22.2528 6.99857 22.0028 6.84483 21.9791C5.20362 21.7253 4.23239 21.3528 4.0399 20.9003C4.02037 20.8552 4.00894 20.8069 4.00615 20.7578C4.00221 20.6928 4.02254 20.6287 4.06319 20.5779C4.10384 20.5271 4.16191 20.4932 4.22614 20.4828C5.58405 20.237 6.8077 19.5096 7.67231 18.434C8.14816 17.8837 8.54374 17.2689 8.84728 16.6077L8.85228 16.5952C8.94181 16.4488 8.99826 16.2845 9.01769 16.1139C9.03712 15.9433 9.01906 15.7706 8.96478 15.6077C8.75353 15.1077 8.0523 14.8865 7.58981 14.739C7.48447 14.7075 7.38025 14.6725 7.27732 14.634C6.86733 14.4715 6.19235 14.129 6.28234 13.6552C6.35123 13.4771 6.47404 13.325 6.63361 13.2201C6.79317 13.1152 6.98152 13.0628 7.17232 13.0702C7.26518 13.068 7.35737 13.0864 7.44231 13.1239C7.78844 13.3011 8.1688 13.4013 8.55729 13.4177C8.78796 13.4339 9.01645 13.364 9.19852 13.2214C9.18685 13.0023 9.17352 12.7835 9.15852 12.5652C8.94738 11.0853 9.03751 9.57802 9.42351 8.13387C9.87755 7.0974 10.6269 6.21767 11.5779 5.60453C12.5289 4.9914 13.6395 4.67203 14.7709 4.68632L15.2134 4.68257C16.3463 4.66807 17.4584 4.98752 18.4109 5.60107C19.3634 6.21462 20.1142 7.09509 20.5695 8.13262C20.9557 9.57803 21.0458 11.0866 20.8345 12.5677L20.8307 12.6389L20.7957 13.2227C20.9611 13.3538 21.1672 13.4228 21.3782 13.4177C21.744 13.3902 22.1008 13.2908 22.4282 13.1252C22.5366 13.078 22.6538 13.0546 22.7719 13.0564C22.906 13.056 23.0388 13.0815 23.1632 13.1314L23.1694 13.1339C23.31 13.1677 23.4374 13.2426 23.5354 13.349C23.6333 13.4554 23.6974 13.5885 23.7194 13.7314C23.7244 13.9615 23.5544 14.304 22.7157 14.6352C22.6131 14.6736 22.5093 14.7086 22.4044 14.7402C21.9407 14.8877 21.2407 15.1102 21.0295 15.609C20.9753 15.7716 20.9573 15.9442 20.9767 16.1145C20.9962 16.2849 21.0525 16.4489 21.142 16.5952L21.147 16.6077C21.5666 17.5661 22.202 18.4144 23.0036 19.0866C23.8052 19.7588 24.7514 20.2366 25.7681 20.4828C25.8322 20.4935 25.8901 20.5274 25.9307 20.5782C25.9713 20.629 25.9918 20.6929 25.9881 20.7578C25.9855 20.8077 25.974 20.8568 25.9544 20.9028Z" fill="white"/>
</svg>
